<svg xmlns="http://www.w3.org/2000/svg" viewBox="0 0 471.54 54">
  <title>IPRI</title>
  <g id="Layer_2" data-name="Layer 2">
    <g id="divider">
      <rect x="88" width="1" height="54" style="fill: #231f20"/>
    </g>
    <g id="OfficeName_Off">
      <g>
        <path d="M104.3,36.29V17.54h4V36.29Z" style="fill: #231f20"/>
        <path d="M113.36,23.79l.5.9a8.57,8.57,0,0,1,4.35-1.25c3.4,0,4.37,1.8,4.37,4.2v8.65h-4v-8c0-.92-.33-1.55-1.4-1.55a4.35,4.35,0,0,0-2.22.65v8.95h-4V23.79Z" style="fill: #231f20"/>
        <path d="M132.84,36.39a9.58,9.58,0,0,1-2,.25c-3.5,0-4.82-1.47-4.82-4.42v-5.1h-2V24.46l2-.55V21.34l4-1.07v3.52h3.1v3.32H130v4.77c0,1,.37,1.52,1.65,1.52a5.49,5.49,0,0,0,1.23-.15Z" style="fill: #231f20"/>
        <path d="M138.23,31.36c-.1,1.62.75,2.1,2.7,2.1a9.47,9.47,0,0,0,4.17-.82v3.12a12.82,12.82,0,0,1-4.7.88c-4.12,0-6.12-2.1-6.12-6.6s2-6.6,5.85-6.6c5.35,0,5.72,4,5.4,7.92Zm0-2.45h3.55c.23-1.37-.08-2.47-1.6-2.47C138.84,26.44,138.23,27.34,138.23,28.91Z" style="fill: #231f20"/>
        <path d="M155.43,26.84a6.38,6.38,0,0,0-1.23-.1,4.66,4.66,0,0,0-2.65.73v8.82h-4V23.79H150l.5.9a5.7,5.7,0,0,1,3.85-1.25,3.36,3.36,0,0,1,1.13.17Z" style="fill: #231f20"/>
        <path d="M159.29,23.79l.5.9a8.57,8.57,0,0,1,4.35-1.25c3.4,0,4.37,1.8,4.37,4.2v8.65h-4v-8c0-.92-.33-1.55-1.4-1.55a4.35,4.35,0,0,0-2.22.65v8.95h-4V23.79Z" style="fill: #231f20"/>
        <path d="M174.22,31.36c-.1,1.62.75,2.1,2.7,2.1a9.47,9.47,0,0,0,4.17-.82v3.12a12.82,12.82,0,0,1-4.7.88c-4.12,0-6.12-2.1-6.12-6.6s2-6.6,5.85-6.6c5.35,0,5.72,4,5.4,7.92Zm0-2.45h3.55c.23-1.37-.08-2.47-1.6-2.47C174.82,26.44,174.22,27.34,174.22,28.91Z" style="fill: #231f20"/>
        <path d="M191.66,36.39a9.58,9.58,0,0,1-2,.25c-3.5,0-4.82-1.47-4.82-4.42v-5.1h-2V24.46l2-.55V21.34l4-1.07v3.52h3.1v3.32h-3.1v4.77c0,1,.38,1.52,1.65,1.52a5.49,5.49,0,0,0,1.23-.15Z" style="fill: #231f20"/>
        <path d="M203,36.29h-4V17.54h6.35c5,0,6.72,2.92,6.72,6.12s-1.72,6.12-6.72,6.12H203Zm0-10.1h2.37a2.24,2.24,0,0,0,2.37-2.5,2.24,2.24,0,0,0-2.37-2.5H203Z" style="fill: #231f20"/>
        <path d="M213.1,30c0-3.9,1.25-6.6,5.87-6.6s5.87,2.7,5.87,6.6-1.25,6.6-5.87,6.6S213.1,33.94,213.1,30Zm4,0c0,2.5.5,3.4,1.87,3.4s1.87-.9,1.87-3.4-.5-3.4-1.87-3.4S217.1,27.54,217.1,30Z" style="fill: #231f20"/>
        <path d="M231.73,36.39a6.87,6.87,0,0,1-1.15.1c-2.15,0-3.85-1.1-3.85-3.52V17.54h4V32.41c0,.47.23.75,1,.75Z" style="fill: #231f20"/>
        <path d="M235.46,17.79a2.37,2.37,0,1,1,0,4.75,2.37,2.37,0,0,1,0-4.75Zm3,18.6a6.87,6.87,0,0,1-1.15.1c-2.15,0-3.85-1.1-3.85-3.52V23.79h4v8.62c0,.47.23.75,1,.75Z" style="fill: #231f20"/>
        <path d="M246.4,33.19a6.77,6.77,0,0,0,2.77-.58V36a7,7,0,0,1-3.17.63c-4.62,0-6.32-2.35-6.32-6.6s1.7-6.6,6.32-6.6a7,7,0,0,1,3.17.62v3.4a6.77,6.77,0,0,0-2.77-.57c-1.65,0-2.77.77-2.77,3.15S244.76,33.19,246.4,33.19Z" style="fill: #231f20"/>
        <path d="M254.77,23.79l2,7.35,2-7.35h4.32L256,42.54h-4.37l3.25-7.07-4.47-11.67Z" style="fill: #231f20"/>
        <path d="M274,36.29h-4V17.54h6.37c5,0,6.7,2.3,6.7,5.87,0,2.32-.65,4.1-2.62,5l3.32,7.82h-4.67l-2.52-7H274Zm0-10.65h2.72c1.77,0,2-1.2,2-2.22s-.23-2.22-2-2.22H274Z" style="fill: #231f20"/>
        <path d="M288.49,31.36c-.1,1.62.75,2.1,2.7,2.1a9.47,9.47,0,0,0,4.17-.82v3.12a12.82,12.82,0,0,1-4.7.88c-4.12,0-6.12-2.1-6.12-6.6s2-6.6,5.85-6.6c5.35,0,5.72,4,5.4,7.92Zm0-2.45H292c.22-1.37-.08-2.47-1.6-2.47C289.09,26.44,288.49,27.34,288.49,28.91Z" style="fill: #231f20"/>
        <path d="M307.19,27.44a10.78,10.78,0,0,0-4-.8c-1.12,0-1.75.25-1.75.87s.42.8,1.25.88c3.95.35,5,1.4,5,4,0,2.4-1.42,4.25-5.65,4.25a11.33,11.33,0,0,1-4.55-.8V32.49a12.14,12.14,0,0,0,4.45.95c1.27,0,1.85-.25,1.85-.87s-.42-.8-1.25-.87c-3.95-.35-5-1.4-5-4s1.65-4.25,5.5-4.25a10,10,0,0,1,4.17.65Z" style="fill: #231f20"/>
        <path d="M313.1,31.36c-.1,1.62.75,2.1,2.7,2.1a9.48,9.48,0,0,0,4.17-.82v3.12a12.82,12.82,0,0,1-4.7.88c-4.12,0-6.12-2.1-6.12-6.6s2-6.6,5.85-6.6c5.35,0,5.72,4,5.4,7.92Zm0-2.45h3.55c.22-1.37-.08-2.47-1.6-2.47C313.7,26.44,313.1,27.34,313.1,28.91Z" style="fill: #231f20"/>
        <path d="M328.87,27.54c0-.57-.4-.87-1.47-.87a12.58,12.58,0,0,0-4.5.95V24.27a12.88,12.88,0,0,1,4.5-.82c4.5,0,5.35,1.92,5.35,4.72v8.12h-2.4l-.55-.95a5.47,5.47,0,0,1-3.67,1.3c-3.17,0-4.25-2.1-4.25-4,0-3.37,2.47-3.87,4.72-4.1l2.27-.23Zm-1.67,3.2c-1.12.15-1.57.7-1.57,1.67a1.37,1.37,0,0,0,1.45,1.47,2.57,2.57,0,0,0,1.8-.6V30.51Z" style="fill: #231f20"/>
        <path d="M342.86,26.84a6.38,6.38,0,0,0-1.22-.1,4.66,4.66,0,0,0-2.65.73v8.82h-4V23.79h2.4l.5.9a5.7,5.7,0,0,1,3.85-1.25,3.36,3.36,0,0,1,1.13.17Z" style="fill: #231f20"/>
        <path d="M350.62,33.19a6.76,6.76,0,0,0,2.77-.58V36a7,7,0,0,1-3.17.63c-4.62,0-6.32-2.35-6.32-6.6s1.7-6.6,6.32-6.6a7,7,0,0,1,3.17.62v3.4a6.76,6.76,0,0,0-2.77-.57c-1.65,0-2.77.77-2.77,3.15S349,33.19,350.62,33.19Z" style="fill: #231f20"/>
        <path d="M359.49,17.54v6.7a6.76,6.76,0,0,1,3.25-.8c3.4,0,4.37,1.8,4.37,4.2v8.65h-4v-8c0-.92-.33-1.55-1.4-1.55a4.35,4.35,0,0,0-2.22.65v8.95h-4V17.54Z" style="fill: #231f20"/>
        <path d="M375,36.29V17.54h4V36.29Z" style="fill: #231f20"/>
        <path d="M384.11,23.79l.5.9A8.56,8.56,0,0,1,389,23.44c3.4,0,4.37,1.8,4.37,4.2v8.65h-4v-8c0-.92-.33-1.55-1.4-1.55a4.35,4.35,0,0,0-2.22.65v8.95h-4V23.79Z" style="fill: #231f20"/>
        <path d="M397.55,17.79a2.37,2.37,0,1,1,0,4.75,2.37,2.37,0,0,1,0-4.75Zm3,18.6a6.86,6.86,0,0,1-1.15.1c-2.15,0-3.85-1.1-3.85-3.52V23.79h4v8.62c0,.47.22.75,1,.75Z" style="fill: #231f20"/>
        <path d="M410.07,36.39a9.57,9.57,0,0,1-2,.25c-3.5,0-4.82-1.47-4.82-4.42v-5.1h-2V24.46l2-.55V21.34l4-1.07v3.52h3.1v3.32h-3.1v4.77c0,1,.37,1.52,1.65,1.52a5.47,5.47,0,0,0,1.22-.15Z" style="fill: #231f20"/>
        <path d="M414,17.79a2.37,2.37,0,1,1,0,4.75,2.37,2.37,0,0,1,0-4.75Zm3,18.6a6.86,6.86,0,0,1-1.15.1c-2.15,0-3.85-1.1-3.85-3.52V23.79h4v8.62c0,.47.22.75,1,.75Z" style="fill: #231f20"/>
        <path d="M425.35,27.54c0-.57-.4-.87-1.47-.87a12.58,12.58,0,0,0-4.5.95V24.27a12.88,12.88,0,0,1,4.5-.82c4.5,0,5.35,1.92,5.35,4.72v8.12h-2.4l-.55-.95a5.47,5.47,0,0,1-3.67,1.3c-3.17,0-4.25-2.1-4.25-4,0-3.37,2.47-3.87,4.72-4.1l2.27-.23Zm-1.67,3.2c-1.12.15-1.57.7-1.57,1.67a1.37,1.37,0,0,0,1.45,1.47,2.57,2.57,0,0,0,1.8-.6V30.51Z" style="fill: #231f20"/>
        <path d="M439.46,36.39a9.57,9.57,0,0,1-2,.25c-3.5,0-4.82-1.47-4.82-4.42v-5.1h-2V24.46l2-.55V21.34l4-1.07v3.52h3.1v3.32h-3.1v4.77c0,1,.38,1.52,1.65,1.52a5.47,5.47,0,0,0,1.22-.15Z" style="fill: #231f20"/>
        <path d="M443.37,17.79a2.37,2.37,0,1,1,0,4.75,2.37,2.37,0,0,1,0-4.75Zm3,18.6a6.86,6.86,0,0,1-1.15.1c-2.15,0-3.85-1.1-3.85-3.52V23.79h4v8.62c0,.47.22.75,1,.75Z" style="fill: #231f20"/>
        <path d="M451.64,36.49,447,23.79h4.17l2.2,7.75,2.2-7.75h4.17l-4.65,12.7Z" style="fill: #231f20"/>
        <path d="M464.15,31.36c-.1,1.62.75,2.1,2.7,2.1a9.47,9.47,0,0,0,4.17-.82v3.12a12.82,12.82,0,0,1-4.7.88c-4.12,0-6.12-2.1-6.12-6.6s2-6.6,5.85-6.6c5.35,0,5.72,4,5.4,7.92Zm0-2.45h3.55c.22-1.37-.08-2.47-1.6-2.47C464.75,26.44,464.15,27.34,464.15,28.91Z" style="fill: #231f20"/>
      </g>
    </g>
    <g id="MITLogo_Off">
      <g>
        <rect x="52" y="8" width="20" height="8" style="fill: #231f20"/>
        <rect x="13" y="8" width="8" height="26" style="fill: #231f20"/>
        <rect x="26" y="8" width="8" height="38" style="fill: #231f20"/>
        <rect y="8" width="8" height="38" style="fill: #231f20"/>
        <rect x="52" y="21" width="8" height="25" style="fill: #231f20"/>
        <rect x="39" y="8" width="8" height="8" style="fill: #231f20"/>
        <rect x="39" y="21" width="8" height="25" style="fill: #a31f34"/>
      </g>
    </g>
  </g>
</svg>
